<?xml version="1.0" encoding="utf-8"?>
<!-- Generator: Adobe Illustrator 25.2.1, SVG Export Plug-In . SVG Version: 6.00 Build 0)  -->
<svg version="1.1" id="레이어_1" xmlns="http://www.w3.org/2000/svg" xmlns:xlink="http://www.w3.org/1999/xlink" x="0px"
	 y="0px" viewBox="0 0 232 62" style="enable-background:new 0 0 232 62;" xml:space="preserve">
<style type="text/css">
	.st0{fill:#FFFFFF;}
</style>
<g>
	<g>
		<path class="st0" d="M93.4,25.8c0,0.2-0.1,0.5-0.1,0.8c0,0.4,0,0.9,0,1.4c0,0.5,0,1.1,0,1.7c0,0.6,0,1.3,0,1.9
			c0,0.5,0,0.9-0.1,1.4c-0.1,0.5-0.2,1-0.3,1.5c-0.1,0.5-0.3,1-0.5,1.4c-0.2,0.4-0.5,0.7-0.8,1c-0.2,0.2-0.4,0.3-0.6,0.4
			c-0.3,0.2-0.5,0.3-0.7,0.3c-0.2,0.1-0.4,0-0.4-0.2c-0.1-0.1-0.1-0.4,0.1-0.8c0.1-0.2,0.1-0.5,0.1-0.9c0-0.4,0-0.9,0-1.5v-1.6
			c-0.3,0.1-0.5,0.2-0.7,0.2c-0.3,0.1-0.5,0.1-0.7,0.2c-0.4,0.1-0.8,0.2-1.2,0.2c-0.5,0.1-0.7,0.1-0.9-0.1c-0.3-0.2-0.5-0.3-0.6-0.5
			c-0.2-0.2-0.5-0.3-0.8-0.3c-0.3,0-0.5-0.1-0.6-0.2c-0.2-0.1-0.3-0.1-0.4-0.2v0.2c0,0.4-0.1,0.7-0.3,0.9c-0.2,0.2-0.4,0.5-0.7,0.7
			c-0.2,0.3-0.4,0.5-0.5,0.8c-0.2,0.4-0.5,0.5-0.7,0.6c-0.8,0.1-1.5,0.1-2.2-0.1c-0.7-0.1-1.4-0.2-2.1-0.3c0,0.3,0,0.6-0.1,0.8
			c-0.1,0.3-0.3,0.5-0.7,0.6c-0.3,0.1-0.5,0.1-0.9,0c-0.3-0.1-0.6-0.3-0.9-0.7c-0.4-0.5-0.6-0.9-0.9-1.4c-0.3-0.5-0.5-1-0.6-1.5
			L73,31c-0.2-0.5-0.4-1-0.7-1.5c-0.3-0.6-0.5-1.2-0.7-1.7c-0.2-0.5-0.3-1-0.3-1.7c-0.1-0.5-0.1-0.9,0-1.1c0.1-0.2,0.2-0.3,0.3-0.3
			c0.1,0,0.3,0.1,0.5,0.3c0.2,0.2,0.3,0.3,0.4,0.4c0.2,0.2,0.4,0.4,0.6,0.5c0.3,0.2,0.4,0.4,0.5,0.4c0.1,0.1,0.3,0.1,0.5,0.2
			c0.2,0.1,0.4,0.2,0.7,0.3c0.2,0.1,0.4,0.3,0.6,0.5c0.2,0.2,0.3,0.5,0.4,0.7c0,0.3,0.1,0.6,0.2,1.1c0,0.5,0.2,1.2,0.5,1.9l0.5,1.3
			c0.1,0.3,0.3,0.4,0.6,0.4c0.3,0.1,0.5,0.1,0.8,0.1c0.1,0,0.3,0,0.6,0c0.2,0,0.4,0,0.6-0.1c0.6-0.1,1.1-0.3,1.3-0.5
			c0.2-0.2,0.3-0.6,0.4-1.2c0-0.1,0-0.2,0-0.4c0-0.1,0-0.3,0-0.6v-2.9c0-0.2-0.1-0.3-0.2-0.4c-0.1-0.1-0.4-0.1-0.7,0
			c-0.3,0.1-0.5,0.1-0.9,0.1c-0.4,0.1-0.7,0.1-1.1,0.1c-0.4,0.1-0.7,0.1-1.1,0.1c-0.3,0.1-0.5,0.1-0.7,0.1c-0.2,0-0.4,0-0.6-0.1
			c-0.3,0-0.4-0.1-0.5-0.2c-0.1-0.1-0.2-0.2-0.1-0.4c0-0.1,0.2-0.3,0.6-0.5c0.6-0.2,1.3-0.4,2-0.7c0.6-0.3,1.2-0.6,1.7-1.1
			c0.3-0.3,0.5-0.5,0.8-0.7c0.2-0.2,0.5-0.3,1-0.3c0.5,0,0.9,0.1,1.4,0.2c0.4,0.1,0.8,0.2,1.3,0.2c0.5,0.1,0.9,0.2,1.2,0.4
			c0.3,0.3,0.5,0.5,0.5,0.9c0,0.4-0.2,0.7-0.7,1.1c-0.3,0.2-0.5,0.4-0.6,0.5c-0.2,0.2-0.3,0.3-0.3,0.5c0.2-0.2,0.4-0.3,0.6-0.3
			c0.3,0,0.6-0.1,1-0.1c0.3,0,0.6,0,1-0.1c0.6,0,1.2,0,1.8-0.1c0.6-0.1,1.2-0.1,1.7-0.3v-0.1c0.1-0.5,0.1-1.1,0.1-1.7
			c-0.1-0.5-0.1-1.1-0.1-1.6c0-0.4,0-0.8,0-1.2c0-0.4-0.2-0.6-0.4-0.8c-0.2-0.1-0.4-0.2-0.6-0.4c-0.3-0.1-0.5-0.3-0.7-0.3
			c-0.1-0.1-0.2-0.2-0.3-0.4c-0.1-0.2-0.1-0.3,0-0.5c0.1-0.1,0.2-0.3,0.4-0.4c0.2-0.1,0.4-0.1,0.8,0c0.6,0.1,1.1,0.3,1.7,0.5
			c0.5,0.2,1.1,0.4,1.7,0.5c0.4,0.1,0.7,0.2,0.9,0.4c0.2,0.2,0.2,0.6,0,1.2c-0.1,0.3-0.2,0.6-0.2,0.9c-0.1,0.3-0.2,0.7-0.2,1
			c0,0.8,0,1.4,0,1.7C93.4,25.3,93.4,25.6,93.4,25.8z M88.1,38.3c0.5,0.1,0.9,0.2,1.4,0.3c0.5,0.2,0.9,0.4,1.4,0.7
			c0.4,0.3,0.7,0.7,1.1,1.2c0.3,0.5,0.4,1.1,0.5,1.8c0,0.5,0,0.7-0.1,0.9c-0.1,0.1-0.2,0.3-0.3,0.3c0,0.1,0.1,0.2,0.1,0.4
			c0,0.1,0,0.4-0.1,0.7c-0.2,0.5-0.5,1.1-0.8,1.7c-0.4,0.6-0.8,1.1-1.4,1.6c-0.4,0.3-0.7,0.5-1.1,0.6c-0.4,0.1-0.8,0.2-1.2,0.3
			c-0.4,0.1-0.8,0.1-1.1,0.1c-0.4,0-0.6,0-0.8,0c-0.5-0.1-1-0.2-1.5-0.3c-0.5-0.2-1-0.4-1.3-0.5c-0.8-0.5-1.4-1.1-1.7-1.9
			c-0.3-0.8-0.5-1.6-0.5-2.4c0-1,0.2-1.9,0.7-2.7c0.5-0.7,1-1.4,1.8-1.9c-0.1-0.2-0.2-0.5-0.2-0.7c-0.1-0.2-0.2-0.4-0.3-0.5
			c-0.2-0.2-0.4-0.4-0.4-0.6c0-0.2,0-0.4,0.1-0.5c0.1-0.1,0.2-0.2,0.4-0.2c0.2,0,0.4,0,0.6,0.2c0.3,0.2,0.6,0.4,0.8,0.5
			c0.2,0.2,0.5,0.3,0.8,0.5c0.3,0.2,0.5,0.4,0.8,0.8c0.3-0.1,0.6-0.2,1-0.3C87.2,38.3,87.6,38.2,88.1,38.3z M85.5,41.4
			c-0.2,0.1-0.3,0.2-0.5,0.2c-0.1,0.1-0.3,0.1-0.4,0.1c-0.1,0-0.1,0-0.1,0c-0.1,0-0.2,0-0.4,0c-0.3,0.1-0.5,0.2-0.6,0.4
			c-0.2,0.3-0.3,0.5-0.3,0.7c-0.1,1,0.2,1.9,0.6,2.5c0.5,0.6,1.2,0.9,2.3,1c0.4,0,0.7-0.1,1.1-0.1c0.4-0.1,0.7-0.2,1-0.3
			c0.5-0.5,0.8-0.9,1-1.5c0.1-0.6,0.2-1.2,0.3-1.8c0-0.7-0.1-1.3-0.5-1.8c-0.4-0.5-0.8-0.8-1.4-0.9c-0.2,0-0.4-0.1-0.6-0.1
			c-0.3,0-0.5,0.1-0.7,0.1c0,0.3-0.1,0.5-0.2,0.8C85.9,41,85.8,41.2,85.5,41.4z M85.2,27.9c-0.4,0-0.6-0.1-0.8-0.2
			c-0.2-0.1-0.3-0.2-0.4-0.4c0,0.1,0,0.3,0,0.4c0,0.2,0,0.4,0,0.5c0.1,1,0.1,2,0.1,2.9c0.1-0.1,0.3-0.2,0.5-0.2c0.3,0,0.6-0.1,1-0.1
			c0.3,0,0.6,0,1-0.1c0.6,0,1.2,0,1.8-0.1c0.6,0,1.1-0.1,1.7-0.2c-0.1-0.9-0.1-1.6,0-2.3c-0.3,0.1-0.5,0.2-0.7,0.2
			c-0.3,0.1-0.5,0.1-0.7,0.2c-0.4,0.1-0.8,0.2-1.2,0.2c-0.5,0.1-0.7,0.1-0.9-0.1c-0.3-0.2-0.5-0.3-0.6-0.5
			C85.8,28.1,85.5,28,85.2,27.9z"/>
		<path class="st0" d="M106.3,29.8c0.1-0.1,0.2-0.3,0.4-0.5c0.1-0.2,0.2-0.3,0.2-0.4c0-0.1,0-0.1-0.1-0.2c-0.1,0-0.3,0-0.5,0.2
			l-1.5,0.6c-0.5,0.2-1,0.4-1.5,0.6c-0.5,0.3-1.1,0.4-1.6,0.4c-0.6,0-1.2-0.1-1.7-0.3c-0.5-0.2-1-0.4-1.5-0.7
			c-0.1-0.1-0.2-0.2-0.3-0.4c-0.1-0.2-0.1-0.3,0-0.5c0-0.2,0.1-0.3,0.2-0.5c0.1-0.1,0.3-0.1,0.6-0.1c0.4,0.1,0.7,0.1,1.1,0.1
			c0.4,0,0.7,0,1.1-0.1c0.4-0.1,0.8-0.1,1.2-0.2c0.4-0.1,0.9-0.1,1.3-0.3c0.4-0.1,0.8-0.2,1.3-0.3c0.4-0.1,0.8-0.2,1.1-0.3
			c0.3-0.1,0.6-0.2,1.1-0.4c0.4-0.1,0.6-0.3,0.8-0.5c0.1-0.1,0.3-0.3,0.5-0.4c0.3-0.1,0.6-0.1,1.1,0.1c0.6,0.3,1.1,0.6,1.5,0.9
			c0.4,0.4,0.5,0.7,0.4,1.1c-0.3,0.6-0.6,1.1-1,1.4c-0.5,0.5-0.8,0.9-1.2,1.4c-0.6,0.8-1.2,1.6-1.8,2.3c-0.6,0.7-1.3,1.4-1.9,2.2
			c-0.5,0.6-1.1,1.2-1.7,1.8c-0.6,0.6-1.3,1.2-1.8,1.8c-0.6,0.6-1.2,1.1-1.7,1.5c-0.5,0.5-1,0.8-1.3,1.1c-0.4,0.3-0.7,0.4-1,0.4
			c-0.3-0.1-0.5-0.2-0.5-0.5c-0.1-0.2,0-0.4,0.1-0.6c0.1-0.2,0.3-0.4,0.6-0.7c0.3-0.3,0.6-0.7,0.9-1.1c0.3-0.4,0.5-0.8,0.8-1.2
			c0.2-0.3,0.4-0.4,0.6-0.5c0.2-0.1,0.4-0.1,0.6-0.1c0.1,0,0.3-0.1,0.5-0.4c0.2-0.3,0.4-0.5,0.6-0.9c0.2-0.3,0.4-0.7,0.6-1
			c0.2-0.3,0.3-0.5,0.4-0.6c0.2-0.2,0.4-0.2,0.6-0.1c0.1-0.4,0.3-0.7,0.5-1.1c0.2-0.3,0.5-0.6,0.7-0.8c0.4-0.3,0.6-0.6,0.9-1
			C105.9,30.5,106.1,30.1,106.3,29.8z M118.2,25.8c0,0.2,0,0.4,0,0.7c0,0.3,0,0.7,0,1c0,0.4,0,0.7,0,1c0,0.3,0,0.6,0,0.7
			c0,0.9,0,1.7,0,2.5c0,0.8,0,1.5,0.1,2.3c0.3,0,0.7-0.1,1-0.2c0.3,0,0.6-0.1,1-0.3c0.3-0.1,0.6-0.2,0.9-0.3c0.3-0.1,0.6,0,0.9,0.1
			l0,0c0.2,0.1,0.3,0.1,0.5,0.1c0.1,0,0.3,0,0.5,0c0.4-0.1,0.8,0,1.2,0.3c0.4,0.3,0.5,0.6,0.6,1c0,0.3,0,0.5,0,0.8
			c-0.1,0.3-0.3,0.4-0.8,0.5c-0.4,0.1-0.8,0-1.4,0c-0.6-0.1-1.1-0.1-1.4-0.2c-1.1-0.1-2-0.1-2.9-0.1c0,1.1-0.1,2.2-0.1,3.2
			c-0.1,1-0.1,2-0.1,3c0,0.5-0.1,1.1-0.2,1.7c-0.1,0.6-0.2,1.3-0.4,1.9c-0.2,0.6-0.3,1.1-0.5,1.6c-0.2,0.5-0.3,0.8-0.5,1
			c-0.2,0.2-0.4,0.5-0.6,0.8c-0.3,0.3-0.5,0.4-0.7,0.4c-0.3,0-0.4-0.1-0.5-0.3c-0.1-0.2-0.1-0.6,0-1.1c0-0.3,0.1-0.6,0.1-1.1
			c0-0.5,0-1,0.1-1.5c0-0.6,0-1.2,0.1-1.8c0-0.6,0-1.3,0-1.9c0-1.4,0-2.7,0-3.9c0-1.2,0-2.3,0-3.5c0-1-0.1-1.9-0.1-2.8
			c0-0.9,0-1.8,0-2.7c0-0.4,0-0.7,0.1-0.9c0-0.2,0.2-0.3,0.4-0.4c-0.1,0-0.1-0.1-0.1-0.2c-0.1-0.1-0.1-0.2-0.1-0.4
			c-0.1-0.1-0.1-0.3-0.1-0.4c0-0.1,0-0.2,0-0.3c0-0.1,0-0.2,0-0.3v-4c0-0.3-0.1-0.5-0.2-0.7c-0.1-0.2-0.3-0.3-0.4-0.5
			c-0.2-0.1-0.4-0.2-0.5-0.3c-0.2-0.1-0.4-0.2-0.6-0.3c-0.2-0.1-0.3-0.2-0.3-0.4c-0.1-0.2,0-0.3,0.1-0.5c0.1-0.1,0.2-0.3,0.4-0.4
			c0.2-0.1,0.5,0,0.8,0c0.1,0.1,0.3,0.1,0.6,0.2c0.3,0.1,0.6,0.2,1,0.3c0.3,0.1,0.7,0.2,1,0.3c0.3,0.1,0.6,0.2,0.8,0.2
			c0.3,0.1,0.6,0.2,0.8,0.3c0.2,0.1,0.2,0.5,0.1,0.9c-0.1,0.3-0.2,0.7-0.3,1c-0.1,0.4-0.2,0.8-0.2,1.3c0,0.5,0,0.9,0,1.3
			C118.2,25,118.2,25.4,118.2,25.8z"/>
		<path class="st0" d="M133.2,29.4l-0.2,0.4c0.6,0.3,1.3,0.6,1.9,0.9c0.6,0.3,1,0.6,1.4,0.8c0.3,0.2,0.6,0.4,0.9,0.6
			c0.3,0.2,0.5,0.4,0.8,0.5c0.1,0.1,0.3,0.3,0.4,0.5c0.1,0.3,0,0.6-0.1,1c-0.1,0.3-0.1,0.5,0,0.6c0,0.2,0,0.4,0,0.5
			c0,0.4-0.2,0.7-0.5,0.8c-0.3,0.2-0.7,0.1-1-0.3l-0.5-0.4c-0.5-0.5-1.1-1.2-1.9-1.8c-0.8-0.6-1.6-1.3-2.5-2
			c-0.5,0.6-0.9,1.1-1.4,1.5c-0.5,0.5-0.9,0.9-1.3,1.3c-0.8,0.7-1.5,1.2-2.3,1.4c-0.8,0.3-1.6,0.4-2.2,0.3c-0.4,0-0.6-0.1-0.7-0.2
			c-0.1-0.1-0.2-0.2-0.2-0.4c0-0.1,0.1-0.2,0.2-0.4c0.1-0.1,0.3-0.2,0.4-0.2c0.6,0,1.2-0.1,1.6-0.5c0.5-0.3,0.8-0.6,1.2-1.1
			c0.3-0.4,0.7-0.8,1.2-1.5c0.4-0.6,0.8-1.2,1.3-1.8l-1.5-0.8c-0.3-0.1-0.5-0.3-0.6-0.5c-0.1-0.1-0.2-0.3-0.1-0.4
			c0-0.1,0.1-0.2,0.3-0.3c0.2,0,0.4,0,0.8,0.1l1.9,0.6l0.3-0.5c0.1-0.1,0.1-0.3,0.2-0.5c0.1-0.2,0.2-0.4,0.3-0.7
			c0.1-0.2,0.2-0.5,0.3-0.7c0.1-0.2,0.1-0.4,0.1-0.5c0.1-0.5,0-0.9-0.2-1.3c-0.3-0.4-0.5-0.8-0.7-1.2c-0.1-0.1-0.1-0.3,0-0.5
			c0.1-0.1,0.2-0.2,0.3-0.3c0.1-0.1,0.3-0.1,0.5-0.1c0.2,0,0.3,0.1,0.5,0.3c0.1,0.2,0.2,0.3,0.4,0.5c0.1,0.2,0.3,0.3,0.6,0.5
			c0.3,0.3,0.6,0.4,1,0.5c0.3,0.2,0.6,0.3,1,0.5c0.1,0.1,0.2,0.2,0.4,0.3c0.1,0.1,0.1,0.2,0.2,0.3c0,0.1,0,0.3,0,0.5
			c-0.1,0.2-0.2,0.4-0.4,0.6c-0.2,0.3-0.5,0.6-0.7,1.1C133.8,28.1,133.5,28.8,133.2,29.4z M142.4,38.3c0.5,0.1,0.9,0.2,1.4,0.3
			c0.5,0.2,0.9,0.4,1.4,0.7c0.4,0.3,0.7,0.7,1.1,1.2c0.3,0.5,0.4,1.1,0.5,1.8c0,0.5,0,0.7-0.1,0.9c-0.1,0.1-0.2,0.3-0.3,0.3
			c0,0.1,0.1,0.2,0.1,0.4c0,0.1,0,0.4-0.1,0.7c-0.2,0.5-0.5,1.1-0.8,1.7c-0.4,0.6-0.8,1.1-1.4,1.6c-0.4,0.3-0.7,0.5-1.1,0.6
			c-0.4,0.1-0.8,0.2-1.2,0.3c-0.4,0.1-0.8,0.1-1.1,0.1c-0.4,0-0.6,0-0.8,0c-0.5-0.1-1-0.2-1.5-0.3c-0.5-0.2-1-0.4-1.3-0.5
			c-0.8-0.5-1.4-1.1-1.7-1.9c-0.3-0.8-0.5-1.6-0.5-2.4c0-1,0.2-1.9,0.7-2.7c0.5-0.7,1-1.4,1.8-1.9c-0.1-0.2-0.2-0.5-0.2-0.7
			c-0.1-0.2-0.2-0.4-0.3-0.5c-0.2-0.2-0.4-0.4-0.4-0.6c0-0.2,0-0.4,0.1-0.5c0.1-0.1,0.2-0.2,0.4-0.2c0.2,0,0.4,0,0.6,0.2
			c0.3,0.2,0.6,0.4,0.8,0.5c0.2,0.2,0.5,0.3,0.8,0.5c0.3,0.2,0.5,0.4,0.8,0.8c0.3-0.1,0.6-0.2,1-0.3C141.6,38.3,142,38.2,142.4,38.3
			z M147.7,30.2c0,0.9,0,1.6,0,2.2c0,0.6-0.1,1.1-0.2,1.6c0,0.3-0.1,0.5-0.2,0.8c-0.1,0.3-0.2,0.6-0.4,0.9c-0.1,0.3-0.3,0.6-0.4,0.9
			c-0.2,0.3-0.3,0.5-0.4,0.5c-0.2,0.1-0.4,0.3-0.6,0.4c-0.2,0.1-0.4,0.2-0.6,0.2c-0.2,0-0.3,0-0.4-0.2c-0.1-0.1-0.1-0.3,0-0.7
			c0-0.1,0-0.3,0.1-0.5c0-0.2,0-0.5,0.1-0.9c0-0.4,0-0.8,0-1.4v-2.3c0-0.3,0-0.6,0-1v-1.2l-0.5,0.9c-0.2,0.3-0.4,0.6-0.5,0.9
			c-0.2,0.4-0.4,0.7-0.6,1.1c-0.2,0.4-0.4,0.8-0.5,1.1c-0.2,0.4-0.3,0.7-0.3,1v0.5c0,0.3,0,0.4-0.2,0.5c-0.1,0.1-0.5,0.2-0.9,0.1
			c-0.3,0-0.6,0-0.9-0.1c-0.3,0-0.5-0.1-0.6-0.2c-0.2-0.1-0.3-0.3-0.4-0.5c-0.1-0.2-0.1-0.5-0.1-0.9c0-1.2,0-2.1,0-2.7
			c0-0.5,0-1,0-1.3c0-0.3,0-0.5,0-0.7c0-0.2,0-0.3,0.1-0.3l0.3-0.2c0-0.1,0-0.2,0-0.3c-0.1,0-0.1-0.1-0.1-0.2l-0.2-0.3
			c-0.1-0.1-0.1-0.3-0.1-0.5c0-0.2,0.1-0.4,0.1-0.7v-3.3c0-0.2-0.1-0.5-0.1-0.7c0-0.2-0.1-0.4-0.3-0.6c-0.2-0.2-0.5-0.3-0.6-0.4
			c-0.2-0.1-0.4-0.2-0.6-0.3c-0.1-0.1-0.2-0.2-0.2-0.4c-0.1-0.1,0-0.3,0-0.5c0-0.1,0.1-0.2,0.3-0.3c0.1-0.1,0.4-0.1,0.6,0
			c0.4,0.1,0.9,0.3,1.5,0.5c0.6,0.2,1.1,0.4,1.7,0.5c0.3,0.1,0.6,0.2,0.8,0.3c0.2,0.1,0.2,0.4,0.1,0.8c-0.1,0.4-0.2,0.7-0.3,1.1
			c-0.1,0.4-0.2,0.8-0.2,1.3c-0.1,0.9-0.1,1.7-0.1,2.5c-0.1,0.8-0.1,1.6-0.1,2.4c0,0.1,0.1,0.1,0.1,0.1c0.1,0,0.2-0.2,0.4-0.5
			c0.3-0.5,0.7-0.9,1.1-1.4c0.4-0.5,0.8-0.9,1.3-1.4c-0.1-0.2-0.2-0.5-0.1-0.7c0-0.1,0-0.2,0-0.3c0-0.1,0-0.3,0-0.6v-3.3
			c0-0.2,0-0.4-0.1-0.6c-0.1-0.2-0.1-0.4-0.3-0.5c-0.2-0.1-0.5-0.2-0.6-0.4c-0.2-0.1-0.4-0.2-0.6-0.3c-0.1-0.1-0.2-0.2-0.3-0.4
			c-0.1-0.1,0-0.3,0-0.5c0.1-0.1,0.2-0.3,0.4-0.4c0.1-0.1,0.4,0,0.7,0c0.5,0.2,1,0.3,1.6,0.5c0.6,0.2,1.1,0.4,1.6,0.5
			c0.3,0.1,0.6,0.2,0.8,0.3c0.2,0.2,0.2,0.4,0.1,0.8c-0.1,0.3-0.2,0.7-0.3,1.1c-0.1,0.5-0.2,0.9-0.2,1.3c0,1.4,0,2.7-0.1,3.7
			C147.7,28.1,147.7,29.2,147.7,30.2z M139.9,41.4c-0.2,0.1-0.3,0.2-0.5,0.2c-0.1,0.1-0.3,0.1-0.4,0.1c-0.1,0-0.1,0-0.1,0
			c-0.1,0-0.2,0-0.4,0c-0.3,0.1-0.5,0.2-0.6,0.4c-0.2,0.3-0.3,0.5-0.3,0.7c-0.1,1,0.2,1.9,0.6,2.5c0.5,0.6,1.2,0.9,2.3,1
			c0.4,0,0.7-0.1,1.1-0.1c0.4-0.1,0.7-0.2,1-0.3c0.5-0.5,0.8-0.9,1-1.5c0.1-0.6,0.2-1.2,0.3-1.8c0-0.7-0.1-1.3-0.5-1.8
			c-0.4-0.5-0.8-0.8-1.4-0.9c-0.2,0-0.4-0.1-0.6-0.1c-0.3,0-0.5,0.1-0.7,0.1c0,0.3-0.1,0.5-0.2,0.8C140.3,41,140.2,41.2,139.9,41.4z
			"/>
		<path class="st0" d="M160.5,28c0.5,0,0.9,0.1,1.4,0.3c0.5,0.2,0.9,0.4,1.4,0.7c0.4,0.4,0.7,0.8,1.1,1.3c0.3,0.5,0.5,1.1,0.5,1.7
			c0,0.3,0,0.6-0.1,0.8c-0.1,0.3-0.2,0.4-0.2,0.4c0,0.1,0.1,0.2,0.1,0.4c0,0.2,0,0.4,0,0.7c-0.2,0.6-0.5,1.3-0.8,2
			c-0.4,0.7-0.9,1.3-1.5,1.8c-0.3,0.3-0.7,0.4-1,0.5c-0.4,0.1-0.8,0.2-1.2,0.3c-0.4,0.1-0.8,0.1-1.2,0.1c-0.4,0-0.7,0-1,0
			c-0.5,0-1-0.1-1.5-0.4c-0.5-0.2-1-0.4-1.3-0.6c-0.5-0.2-0.8-0.5-1.1-0.9c-0.3-0.3-0.5-0.7-0.7-1.1c-0.2-0.4-0.3-0.8-0.4-1.2
			c-0.1-0.4-0.1-0.8-0.1-1.2c0-1,0.2-1.9,0.7-2.7c0.5-0.8,1.1-1.4,1.8-2c-0.1-0.3-0.2-0.6-0.3-0.9c-0.1-0.3-0.2-0.5-0.3-0.6
			c-0.3-0.2-0.4-0.4-0.4-0.6c0-0.2,0-0.4,0.1-0.5c0.1-0.1,0.3-0.2,0.5-0.2c0.2,0,0.4,0.1,0.7,0.2c0.3,0.2,0.5,0.3,0.7,0.5
			c0.2,0.2,0.5,0.3,1,0.5c0.4,0.2,0.7,0.5,0.9,1.1c0.3-0.1,0.6-0.2,1-0.3C159.6,28,160,28,160.5,28z M157.9,30.9
			c-0.5,0.4-0.8,0.5-1.2,0.5c-0.2,0-0.3,0-0.4,0c-0.2,0.1-0.4,0.3-0.5,0.6c-0.1,0.3-0.2,0.5-0.2,0.7c-0.1,0.4-0.1,0.7,0,1
			c0,0.4,0.1,0.7,0.2,1c0.1,0.3,0.3,0.6,0.6,0.8c0.3,0.3,0.6,0.4,1.1,0.5c0.5,0.2,1.1,0.2,1.6,0.2c0.5,0,1-0.1,1.4-0.3
			c0.5-0.4,0.9-0.9,1.1-1.5c0.2-0.6,0.3-1.2,0.3-1.9c0-0.7-0.1-1.3-0.5-1.8c-0.4-0.5-0.9-0.8-1.6-0.9c-0.2,0-0.4-0.1-0.6-0.1
			c-0.3,0-0.5,0.1-0.7,0.1C158.5,30.1,158.3,30.5,157.9,30.9z M172.6,25.8c0,0.2,0,0.4,0,0.7c0,0.3,0,0.7,0,1c0,0.4,0,0.7,0,1
			c0,0.3,0,0.6,0,0.7c0,0.8,0,1.6,0,2.3c0,0.7,0,1.4,0,2.1c0.4,0,0.7-0.1,1.1-0.2c0.3,0,0.6-0.1,1-0.3c0.3-0.1,0.6-0.2,0.9-0.3
			c0.3-0.1,0.6,0,0.9,0.1l0,0c0.2,0.1,0.3,0.1,0.5,0.1c0.1,0,0.3,0,0.5,0c0.4-0.1,0.8,0,1.2,0.3c0.4,0.3,0.5,0.6,0.6,1
			c0,0.3,0,0.5,0,0.8c-0.1,0.3-0.3,0.4-0.8,0.5c-0.4,0.1-0.8,0-1.4,0c-0.6-0.1-1.1-0.1-1.4-0.2c-1.1-0.1-2-0.1-2.9-0.1
			c0,1.2,0,2.3-0.1,3.4c-0.1,1.1-0.1,2.1-0.1,3.2c0,0.5-0.1,1.1-0.2,1.7c-0.1,0.6-0.2,1.3-0.4,1.9c-0.2,0.6-0.3,1.1-0.5,1.6
			c-0.2,0.5-0.3,0.8-0.5,1c-0.2,0.2-0.4,0.5-0.6,0.8c-0.3,0.3-0.5,0.4-0.7,0.4c-0.3,0-0.4-0.1-0.5-0.3c-0.1-0.2-0.1-0.6,0-1.1
			c0-0.3,0.1-0.6,0.1-1.1c0-0.5,0-1,0.1-1.5c0-0.6,0-1.2,0.1-1.8c0-0.6,0-1.3,0-1.9c0-1.4,0-2.7,0-3.9c0-1.2,0-2.3,0-3.5
			c0-1-0.1-1.9-0.1-2.8c0-0.9,0-1.8,0-2.7c0-0.4,0-0.7,0.1-0.9c0-0.2,0.2-0.3,0.4-0.4c-0.1,0-0.1-0.1-0.1-0.2
			c-0.1-0.1-0.1-0.2-0.1-0.4c-0.1-0.1-0.1-0.3-0.1-0.4c0-0.1,0-0.2,0-0.3c0-0.1,0-0.2,0-0.3v-4c0-0.3-0.1-0.5-0.2-0.7
			c-0.1-0.2-0.3-0.3-0.4-0.5c-0.2-0.1-0.4-0.2-0.5-0.3c-0.2-0.1-0.4-0.2-0.6-0.3c-0.2-0.1-0.3-0.2-0.3-0.4c-0.1-0.2,0-0.3,0.1-0.5
			c0.1-0.1,0.2-0.3,0.4-0.4c0.2-0.1,0.5,0,0.8,0c0.1,0.1,0.3,0.1,0.6,0.2c0.3,0.1,0.6,0.2,1,0.3c0.3,0.1,0.7,0.2,1,0.3
			c0.3,0.1,0.6,0.2,0.8,0.2c0.3,0.1,0.6,0.2,0.8,0.3c0.2,0.1,0.2,0.5,0.1,0.9c-0.1,0.3-0.2,0.7-0.3,1c-0.1,0.4-0.2,0.8-0.2,1.3
			c0,0.5,0,0.9,0,1.3C172.6,25,172.6,25.4,172.6,25.8z"/>
		<path class="st0" d="M193.8,41.2c0,0.6,0,1.1,0,1.5c0,0.4,0,0.7,0,1c0,0.3-0.1,0.5-0.1,0.7c0,0.2-0.1,0.4-0.1,0.5
			c-0.1,0.3-0.1,0.5-0.2,0.9c-0.1,0.3-0.2,0.6-0.4,1c-0.2,0.3-0.3,0.6-0.5,0.9c-0.2,0.3-0.4,0.5-0.5,0.6c-0.2,0.1-0.4,0.3-0.6,0.4
			c-0.3,0.1-0.5,0.2-0.6,0.2c-0.2,0-0.4,0-0.4-0.2c-0.1-0.1-0.1-0.4,0-0.7c0.1-0.3,0.1-0.6,0.2-1.2c0-0.6,0-1.2,0-1.8
			c0-0.4,0-0.7,0-1.1c0-0.5,0-1.1,0-2c0-0.2,0-0.4,0-0.7c0-0.3,0-0.5,0-0.8c0-0.3,0-0.5,0-0.7c0-0.2,0.1-0.4,0.1-0.4
			c0.1-0.1,0.1-0.2,0.2-0.2c0,0,0.1,0,0.2,0v0c0-0.2-0.1-0.4-0.2-0.6c-0.1-0.1-0.2-0.3-0.2-0.6v-1.2l-0.9,0.1
			c-0.5,0.1-1.1,0.2-1.7,0.2c-0.6,0.1-1.3,0.2-1.8,0.3c-0.6,0.1-1.2,0.3-1.6,0.4c-0.5,0.1-0.8,0.3-0.9,0.3c-0.4,0.2-0.7,0.3-1,0.3
			c-0.3,0-0.7,0-1.1-0.2c-0.5-0.2-1-0.4-1.5-0.5c-0.5-0.1-1-0.2-1.4-0.5c-0.3-0.1-0.5-0.2-0.5-0.4c-0.1-0.2-0.1-0.3-0.1-0.5
			c0-0.1,0.1-0.3,0.3-0.4c0.1-0.1,0.4-0.1,0.6,0c0.3,0.1,0.5,0.1,0.7,0.1c0.2,0,0.4,0,0.7-0.2c0.8-0.2,1.6-0.4,2.4-0.5
			c0.8-0.1,1.6-0.1,2.4-0.2c0.3,0,0.7-0.1,1.5-0.1c0.7,0,1.5-0.1,2.3-0.2c0.8-0.1,1.6-0.1,2.3-0.2c0.7,0,1.3-0.1,1.6-0.1
			c0.7,0,1.4,0,2.1,0c0.7,0,1.4,0,2-0.1c0.3,0,0.6-0.1,1-0.3c0.3-0.1,0.6-0.2,1-0.2c0.4,0,0.8,0.1,1.2,0.1c0.3,0.1,0.7,0.1,1,0.1
			c0.4,0,0.7-0.1,1.1-0.3c0.3-0.1,0.6-0.1,1,0c0.1,0.1,0.4,0.1,0.6,0.1c0.2,0.1,0.5,0.1,0.7,0.2c0.2,0.1,0.4,0.2,0.5,0.4
			c0.1,0.2,0.1,0.4,0.1,0.6c-0.1,0.3-0.2,0.5-0.3,0.5c-0.1,0.1-0.3,0.2-0.4,0.4c0,0.4-0.1,0.7-0.2,0.9c-0.1,0.3-0.5,0.4-1,0.3
			c-0.4-0.1-0.9-0.2-1.4-0.2c-0.6,0-1.1-0.1-1.7-0.2c-0.6,0-1.1-0.1-1.6-0.2c-0.5-0.1-0.9-0.1-1.2-0.3c-0.3-0.1-0.4-0.1-0.5-0.1
			c-0.1,0-0.3,0-0.6,0c-0.5,0-0.9,0-1.4,0.1c-0.5,0.1-0.9,0.1-1.4,0.2c0,0.9-0.1,1.7-0.1,2.5C193.8,39.7,193.8,40.5,193.8,41.2z
			 M187.4,22.6c0.5-0.1,1-0.2,1.6-0.3c0.6-0.1,1.3-0.2,2-0.4c0.6-0.1,1.3-0.3,2-0.5c0.6-0.1,1.3-0.3,1.8-0.4
			c0.3-0.1,0.6-0.1,0.9-0.1c0.3,0.1,0.6,0.2,1,0.3c0.5,0.2,0.9,0.4,1.4,0.5c0.4,0.2,0.7,0.3,1,0.5h0c0.6,0.3,0.8,1,0.6,2.3
			c-0.1,0.3-0.1,0.8-0.2,1.4c-0.1,0.7-0.2,1.4-0.4,2.1l-0.5,3.2c-0.1,0.5-0.1,0.7-0.1,0.9c-0.1,0.1-0.1,0.3-0.2,0.4h0
			c0,0.1-0.1,0.1-0.1,0.2c-0.1,0.1-0.1,0.2-0.1,0.3c-0.1,0.5-0.4,0.8-0.7,0.9c-0.4,0.1-0.7,0-0.9-0.4c-0.1-0.2-0.3-0.5-0.5-0.7
			c-0.3-0.2-0.5-0.5-0.8-0.7c-0.3-0.1-0.5-0.3-0.5-0.5c-0.1-0.1-0.1-0.3,0-0.4c0.1-0.1,0.2-0.2,0.4-0.3c0.2-0.1,0.4-0.1,0.7-0.1
			c0.4,0,0.6-0.1,0.6-0.5c0-0.1,0-0.4,0-0.9c0-0.5,0-1,0.1-1.6c0-0.6,0-1.2,0.1-1.7c0-0.5,0.1-0.9,0.1-1.2c0-0.3-0.1-0.6-0.3-0.9
			c-0.2-0.2-0.4-0.4-0.6-0.4c-0.3,0-0.6-0.1-1-0.1c-0.4,0-0.6,0-0.8,0c-0.4,0.1-0.7,0.2-1.1,0.3c-0.4,0.1-0.7,0.2-1,0.3
			c-0.6,0.2-1.3,0.5-1.8,0.7c-0.6,0.3-1.3,0.4-1.9,0.3c-0.4,0-0.8-0.1-1.1-0.2c-0.4-0.1-0.7-0.2-1-0.3c-0.3-0.1-0.6-0.3-0.8-0.4
			c-0.3-0.1-0.5-0.2-0.6-0.4c-0.1-0.1-0.2-0.2-0.3-0.4c-0.1-0.1-0.1-0.3,0-0.5c0-0.1,0.1-0.3,0.3-0.4c0.1-0.1,0.3-0.1,0.6-0.1
			c0.1,0,0.3,0.1,0.5,0.1c0.2,0,0.4,0,0.6,0H187.4z"/>
		<path class="st0" d="M222.9,32c0.5,0.5,0.8,0.8,1.1,1.2c0.3,0.4,0.4,0.9,0.3,1.5c-0.1,0.5-0.3,0.7-0.5,0.9
			c-0.3,0.2-0.5,0.3-0.6,0.4l-0.1,0h0c-0.2,0.1-0.4,0.2-0.6,0.2c-0.3,0.1-0.5,0-0.6,0c-0.2,0-0.4-0.1-0.5-0.3
			c-0.2-0.1-0.2-0.3-0.2-0.5c0-0.2,0-0.4-0.1-0.6c-0.1-0.2-0.1-0.4-0.1-0.5c0-0.2,0.1-0.4,0.1-0.5c0-0.1-0.1-0.2-0.2-0.3
			c-0.3-0.2-0.6-0.5-0.9-0.6c-0.3-0.2-0.6-0.4-1-0.5c-0.5,0.6-1.1,1.2-1.6,1.8c-0.5,0.6-1.1,1.1-1.7,1.5c-0.6,0.5-1.2,0.8-1.9,1
			c-0.7,0.3-1.4,0.5-2.3,0.5c-0.5,0-0.8-0.1-1-0.2c-0.2-0.1-0.3-0.2-0.2-0.4c0-0.1,0.1-0.3,0.4-0.5c0.2-0.1,0.5-0.2,0.8-0.3
			c0.4,0,0.8-0.2,1.4-0.4c0.5-0.2,1.1-0.6,1.7-1.3l0.6-0.7c-0.5-0.6-1.1-1.1-1.8-1.6l-0.1,0.1c-0.4,0.4-0.7,0.7-1,1.1
			c-0.3,0.4-0.7,0.6-1,0.9c-0.4,0.3-0.8,0.5-1.2,0.7c-0.5,0.2-0.9,0.4-1.5,0.5c-0.3,0.1-0.6,0.1-0.9,0c-0.3,0-0.6-0.1-0.8-0.2
			c-0.2-0.1-0.3-0.2-0.3-0.4c0-0.1,0-0.2,0.1-0.3c0.1-0.1,0.2-0.2,0.4-0.2c0.1,0,0.3-0.1,0.5-0.1c0.1,0,0.3-0.1,0.5-0.1
			c0.2-0.1,0.4-0.1,0.6-0.3c0.5-0.3,0.9-0.7,1.4-1.2c0.5-0.5,0.9-1,1.3-1.5c-0.1,0-0.3,0-0.4-0.1c-0.1,0-0.3-0.1-0.3-0.2
			c-0.1-0.1-0.1-0.1-0.1-0.2c0,0,0-0.1,0-0.2c-0.2,0-0.3-0.1-0.5-0.2c-0.2-0.1-0.3-0.1-0.4-0.2c-0.4-0.2-0.5-0.4-0.5-0.6
			c0-0.2,0.3-0.3,0.9-0.3c0.3,0,0.6,0,1.1,0.1c0.4,0.1,0.8,0.2,1.2,0.3l0.5-0.8c0.5-0.7,0.8-1.5,1.1-2.3c0-0.1,0-0.2-0.1-0.2
			c-0.4,0.2-0.7,0.4-0.9,0.5c-0.3,0.2-0.5,0.4-0.8,0.6c-0.3,0.2-0.7,0.3-1.1,0.2c-0.5,0-0.8-0.2-1.2-0.4c-0.4-0.2-0.7-0.5-1-0.9
			c-0.3-0.3-0.5-0.6-0.6-0.7c-0.3-0.3-0.3-0.5-0.1-0.7c0.1-0.2,0.5-0.2,1,0c0.2,0.1,0.5,0.2,0.7,0.2c0.3,0,0.5,0,0.8,0
			c0.1,0,0.4-0.1,0.9-0.1c0.4,0,0.9-0.1,1.4-0.2c0.5-0.1,0.9-0.2,1.3-0.4c0.4-0.1,0.6-0.3,0.6-0.5c0-0.1,0.1-0.3,0.3-0.5
			c0.2-0.2,0.5-0.2,1.1-0.1c0.5,0.1,0.8,0.3,1.1,0.4c0.3,0.2,0.5,0.3,0.8,0.5c0.3,0.2,0.4,0.4,0.4,0.8c-0.1,0.4-0.3,0.7-0.7,0.9
			l-0.1,0.1c0.4-0.1,0.7-0.2,1.1-0.4c0.3-0.1,0.6-0.2,0.8-0.4c0.1-0.1,0.1-0.3,0.2-0.4c0-0.1,0.1-0.2,0.2-0.3
			c0.1-0.1,0.2-0.1,0.4-0.1c0.1,0,0.4,0,0.7,0.1c0.5,0.1,0.8,0.3,1.1,0.4c0.3,0.2,0.5,0.3,0.8,0.5c0.1,0.1,0.2,0.2,0.3,0.3
			c0.1,0.2,0.1,0.3,0.1,0.5c0,0.2-0.1,0.4-0.2,0.5c-0.1,0.2-0.3,0.3-0.5,0.4c-0.3,0.1-0.4,0.3-0.5,0.5c-0.2,0.3-0.3,0.5-0.4,0.7
			c-0.2,0.5-0.5,0.9-0.6,1.3c-0.3,0.4-0.5,0.8-0.7,1.2c0.5,0.2,0.9,0.4,1.4,0.6C222,31.4,222.4,31.7,222.9,32z M215.5,29
			c-0.1,0.2-0.3,0.5-0.4,0.6c-0.2,0.2-0.3,0.5-0.5,0.6c0.3,0.2,0.6,0.4,1,0.5c0.3,0.2,0.6,0.4,0.9,0.6c0.2-0.3,0.5-0.7,0.6-1
			c0.2-0.3,0.4-0.7,0.5-1c0.1-0.4,0.3-0.7,0.5-1c0.2-0.3,0.3-0.5,0.5-0.9c0-0.1,0-0.2,0-0.3c-0.1-0.1-0.1-0.1-0.1-0.1
			c-0.3,0.2-0.6,0.4-0.8,0.5c-0.3,0.2-0.5,0.4-0.7,0.6c-0.3,0.2-0.7,0.3-1.2,0.2L215.5,29z M218.4,39.1c0.2,0,0.4,0,0.7,0
			c0.3,0,0.7,0,1.2-0.1c0.3,0,0.7-0.1,1.1-0.1c0.4,0,0.7-0.1,1.1-0.2c0.4-0.1,0.7-0.1,1-0.2c0.3-0.1,0.6-0.1,0.8-0.2
			c0,0,0.1,0,0.2-0.1c0,0,0.1,0,0.1-0.1c0.2-0.1,0.4-0.2,0.7-0.4c0.3-0.1,0.6-0.1,1,0c0.4,0.1,0.8,0.3,1.3,0.5
			c0.5,0.3,0.8,0.5,1.1,0.6c0.4,0.3,0.6,0.5,0.6,0.8c0,0.3-0.1,0.6-0.3,0.9c-0.2,0.3-0.4,0.5-0.5,0.6c-0.1,0.2-0.3,0.3-0.5,0.3
			c-0.1,0-0.2,0.2-0.3,0.4c-0.1,0.2-0.2,0.4-0.2,0.5c-0.2,0.5-0.3,1.1-0.4,1.6c-0.1,0.5-0.2,1.1-0.3,1.6l0.6,0.1
			c0.4,0.1,0.6,0.2,0.7,0.5c0,0.2,0,0.5,0,0.9c-0.1,0.3-0.2,0.6-0.4,0.8c-0.2,0.3-0.6,0.4-1.2,0.3c-0.3,0-0.8-0.1-1.5-0.1
			c-0.7-0.1-1.4-0.1-2.1-0.2c-0.7-0.1-1.4-0.1-1.9-0.1c-0.6-0.1-0.9-0.1-1-0.1c-0.2,0-0.4-0.1-0.6-0.1c-0.2-0.1-0.4-0.2-0.5-0.3
			c-0.1,0.5-0.3,0.9-0.4,1.2c-0.1,0.2-0.2,0.3-0.4,0.5c-0.2,0.1-0.4,0.2-0.5,0.2c-0.2,0-0.4-0.1-0.5-0.2c-0.2-0.2-0.3-0.4-0.4-0.8
			c-0.1-0.2-0.1-0.5-0.2-0.8c-0.1-0.4-0.1-0.7-0.2-1c-0.1-0.4-0.1-0.7-0.2-1c-0.1-0.3-0.1-0.6-0.1-0.8c-0.1-0.5-0.1-0.9-0.2-1.4
			c-0.1-0.5-0.1-1-0.1-1.5c0-0.7,0-1.3,0.2-1.9c0.2-0.6,0.6-1.1,1.3-1.7c0.5-0.4,0.9-0.6,1.2-0.7c0.3-0.1,0.5-0.2,0.7-0.1
			s0.1,0.2,0.1,0.5c-0.1,0.3-0.3,0.5-0.6,0.9l-0.3,0.3c-0.1,0.1-0.1,0.2-0.2,0.2H218.4z M220,46.6c0.7-0.2,1.4-0.4,2.1-0.6
			c0.7-0.2,1.4-0.4,2.1-0.4c0.1,0,0.2,0,0.3,0c0.1,0,0.3,0,0.5,0c0-0.7,0.1-1.3,0.1-1.9c0.1-0.6,0.1-1.3,0-1.9
			c-0.1-0.3-0.1-0.5-0.3-0.6c-0.2-0.1-0.3-0.1-0.5-0.1c-0.2,0-0.4,0.1-0.6,0.2c-0.2,0.1-0.4,0.2-0.6,0.3c-0.1,0.1-0.3,0.2-0.5,0.3
			c-0.3,0.1-0.5,0.2-0.7,0.2c-0.3,0.1-0.6,0.1-0.8,0c-0.3,0-0.5-0.1-0.7-0.3c-0.4-0.3-0.7-0.5-1.1-0.8c-0.4-0.3-0.8-0.5-1.2-0.7
			c0,0.2,0.1,0.4,0.2,0.5c0.1,0.2,0.1,0.4,0.2,0.5c0,0.1,0.1,0.4,0.2,0.6c0.1,0.3,0.2,0.6,0.3,0.9c0.1,0.3,0.2,0.6,0.3,0.9
			c0.1,0.3,0.1,0.5,0.1,0.6c0.1,0.4,0.1,0.8,0.1,1.3c-0.1,0.5-0.1,1-0.2,1.4c0.1-0.1,0.2-0.1,0.3-0.2
			C219.6,46.7,219.8,46.6,220,46.6z M229.1,25.8c0,0.2,0,0.4,0,0.7c0,0.3,0,0.6,0,1c0,0.4-0.1,0.7-0.1,1c0,0.3,0,0.5,0,0.7V31
			c0,0.5,0,0.9,0,1.1c0,0.3,0,0.5,0,0.7c0,0.2-0.1,0.3-0.1,0.4c-0.1,0.3-0.1,0.5-0.2,0.8c-0.1,0.3-0.2,0.6-0.4,1
			c-0.2,0.3-0.3,0.6-0.5,0.9c-0.2,0.3-0.3,0.5-0.4,0.5c-0.2,0.2-0.4,0.3-0.6,0.5c-0.2,0.2-0.4,0.3-0.6,0.3c-0.2,0.1-0.4,0-0.4-0.2
			c-0.1-0.1-0.1-0.4,0-0.8c0.2-0.9,0.2-1.7,0.2-2.6c-0.1-0.8-0.1-1.6-0.1-2.4c0-0.5,0-0.9,0-1.4c0-0.5,0-0.9,0-1.2
			c0-0.3,0-0.5,0-0.7c0-0.2,0-0.3,0.1-0.4c0.1,0,0.2-0.1,0.3-0.2c0.1,0,0.1-0.1,0-0.2c-0.1-0.1-0.2-0.2-0.2-0.4
			c-0.1-0.1-0.1-0.3-0.1-0.6c0-0.2,0.1-0.4,0.1-0.6v-1c0-0.4,0-0.7,0-1.1c0-0.3,0-0.8,0-1.4c-0.1-0.5-0.2-1-0.5-1.3
			c-0.3-0.3-0.7-0.5-1.2-0.7c-0.2-0.1-0.3-0.2-0.3-0.4c-0.1-0.2,0-0.3,0-0.5c0.1-0.1,0.2-0.3,0.4-0.4c0.2-0.1,0.5-0.1,0.8,0
			c0.5,0.1,1,0.3,1.6,0.5c0.5,0.2,1.1,0.4,1.6,0.5c0.4,0.1,0.7,0.2,0.9,0.3c0.2,0.2,0.2,0.5,0.1,0.9c-0.1,0.5-0.3,0.9-0.3,1.2
			c-0.1,0.3-0.2,0.6-0.2,1c0,0.8,0,1.4,0,1.8C229.1,25.3,229.1,25.6,229.1,25.8z"/>
	</g>
	<g>
		<path class="st0" d="M114.9,4.6h4.8v0.7h-2v2.8c0,2.3,1,3.4,2.1,3.9v0.7c-1.1-0.4-2.1-1.4-2.5-2.5c-0.4,1.1-1.4,2.1-2.5,2.5V12
			c1-0.5,2.1-1.6,2.1-3.9V5.3h-2V4.6z M121.9,4.5v3.7h1.4v0.7h-1.4v4.4h-0.8V4.5H121.9z"/>
		<path class="st0" d="M128.5,9.3h-4V6.6h3.4V5.2h-3.4V4.6h4.2v2.7h-3.4v1.4h3.4c0.9,0,1.6-0.1,2-0.5V4.5h0.8v2.2h1.4v0.7h-1.4v2.5
			h-0.8V8.8C130.2,9.2,129.5,9.3,128.5,9.3z M124.8,11.9c0-0.5,0.2-0.8,0.7-1.1c0.6-0.4,1.5-0.5,2.8-0.5c1.2,0,2.2,0.2,2.8,0.5
			c0.4,0.3,0.7,0.6,0.7,1.1c0,0.5-0.2,0.8-0.7,1.1c-0.6,0.4-1.6,0.5-2.8,0.5c-1.2,0-2.2-0.2-2.8-0.5
			C125.1,12.8,124.8,12.4,124.8,11.9z M125.6,11.9c0,0.2,0.1,0.4,0.3,0.6c0.4,0.3,1.2,0.4,2.3,0.4c1.1,0,1.8-0.1,2.3-0.4
			c0.2-0.1,0.3-0.4,0.3-0.6c0-0.2-0.1-0.4-0.3-0.6c-0.4-0.3-1.2-0.4-2.3-0.4c-1.1,0-1.9,0.1-2.3,0.4
			C125.7,11.5,125.6,11.7,125.6,11.9z"/>
		<path class="st0" d="M135.8,4.2h0.8v1.4h2.2v0.7h-5.1V5.6h2.1V4.2z M134.1,10c0-1.1,0.3-1.9,0.8-2.4c0.3-0.3,0.8-0.5,1.4-0.5
			s1,0.2,1.4,0.5c0.5,0.5,0.8,1.3,0.8,2.4c0,1.1-0.3,1.9-0.8,2.4c-0.3,0.3-0.8,0.5-1.4,0.5s-1-0.1-1.4-0.5
			C134.4,12,134.1,11.1,134.1,10z M134.8,10c0,0.9,0.2,1.5,0.5,1.9c0.2,0.2,0.5,0.3,0.9,0.3c0.3,0,0.6-0.1,0.9-0.3
			c0.4-0.4,0.5-1,0.5-1.9c0-0.9-0.2-1.5-0.5-1.9c-0.2-0.2-0.5-0.3-0.9-0.3c-0.3,0-0.6,0.1-0.9,0.3C135,8.5,134.8,9.1,134.8,10z
			 M140.9,4.5v3.7h1.4v0.7h-1.4v4.4h-0.8V4.5H140.9z"/>
		<path class="st0" d="M143.3,12.9v-0.7h2.8V7.9h0.8v4.3h4.3v0.7H143.3z M149.9,7.8V5.3h-6.2V4.6h7v3c0,1-0.1,2.1-0.2,2.9h-0.8
			C149.8,9.8,149.9,8.7,149.9,7.8z"/>
		<path class="st0" d="M158.5,4.5v1.2c0,1.5,1,2.4,2.1,2.7v0.7c-1.2-0.3-2.1-1-2.5-1.8c-0.3,0.8-1.3,1.6-2.5,2V8.5
			c1.2-0.4,2.1-1.4,2.1-2.8V4.5H158.5z M157.8,10.8h-1.3v-0.7h6.6v0.7h-1.2v0.9c0,0.4-0.1,0.8-0.2,1h1.5v0.7h-6.9v-0.7h1.4V10.8z
			 M161.1,11.7v-0.9h-2.5v2h2.4C161,12.5,161.1,12.1,161.1,11.7z M163.1,9.4h-0.8V4.5h0.8V9.4z"/>
		<path class="st0" d="M165.2,9.8V9.1h8v0.7H165.2z M165.6,6.2c0-0.5,0.2-0.9,0.6-1.2c0.6-0.4,1.7-0.6,3-0.6c1.3,0,2.3,0.2,3,0.6
			c0.4,0.3,0.6,0.7,0.6,1.2s-0.2,0.9-0.6,1.2c-0.6,0.4-1.7,0.6-3,0.6c-1.3,0-2.3-0.2-3-0.6C165.8,7.1,165.6,6.8,165.6,6.2z
			 M166.6,10.9v1.8h6.2v0.7h-7v-2.5H166.6z M166.4,6.2c0,0.3,0.1,0.5,0.4,0.7c0.4,0.3,1.2,0.4,2.4,0.4c1.1,0,1.9-0.1,2.4-0.4
			c0.3-0.2,0.4-0.4,0.4-0.7c0-0.3-0.1-0.5-0.4-0.7c-0.4-0.3-1.2-0.4-2.4-0.4c-1.1,0-2,0.1-2.4,0.4C166.5,5.7,166.4,5.9,166.4,6.2z"
			/>
		<path class="st0" d="M177.7,8.9V4.6h4.2v4.4H177.7z M181.5,11.8c-0.6,0.8-1.8,1.5-3.5,1.7v-0.7c1.8-0.2,3.1-1.1,3.1-2.3V9.9h0.8
			v0.5c0,1.2,1.3,2.1,3.1,2.3v0.7C183.4,13.3,182.2,12.6,181.5,11.8z M181.2,5.3h-2.7v3h2.7V5.3z M184.7,4.5v2.2h1.4v0.7h-1.4V10
			h-0.8V4.5H184.7z"/>
	</g>
	<g>
		<path class="st0" d="M14.2,46h1.9v-2.2h10.5v2.1h2c-0.1-1-0.1-2.1-0.1-3.2v-4c0-1,0-2,0.1-3h-9.7c2.6-1.6,4.5-3.3,5.9-5.1
			c1.4-1.8,2.5-3.2,3.2-4.4H17c0.3-0.4,0.6-0.8,0.8-1.2c0.2-0.3,0.5-0.6,0.8-1c-0.6-0.2-1.3-0.5-2.1-1c-0.9,1.9-1.9,3.5-2.9,4.8
			c-1.1,1.3-2.3,2.4-3.8,3.3c0.8,0.5,1.4,0.9,1.7,1.3c1.1-0.8,2.6-2.4,4.5-4.7h8.8c-1.3,1.9-2.7,3.5-4.3,4.7c-0.6-0.5-2-1.6-4.1-3.3
			c-0.5,0.6-0.9,1.1-1.4,1.4c1.1,0.7,2.3,1.7,3.8,3c-1.1,0.8-2.7,1.7-4.7,2.5c-2,0.8-3.9,1.4-5.5,1.7c0.6,0.6,1,1.2,1.3,1.8
			c0.8-0.3,2.3-0.8,4.4-1.7V43C14.3,44.1,14.3,45.1,14.2,46z M16.1,37.4h10.5v4.9H16.1V37.4z"/>
		<path class="st0" d="M50,36.2c0.4-0.4,0.9-0.7,1.4-1.1c0.6-0.3,1.3-0.6,2-1c-0.3-0.3-1-0.9-1.9-1.8c-0.8,1-1.6,1.9-2.6,2.6
			c-1,0.7-1.8,1.2-2.6,1.6c-0.5-0.8-1-1.5-1.4-2c-0.5-0.5-0.9-0.9-1.4-1.4c0.7-0.6,1.4-1.2,1.9-1.7H48c0.8,0,1.9,0,3.1,0.1v-1.7
			c-1.2,0.1-2.3,0.1-3.1,0.1h-6.6c-0.9,0-2,0-3.2-0.1v1.7c1.2-0.1,2.3-0.1,3.2-0.1h1.4c-0.6,0.7-1.7,1.4-3.1,2.1
			c-1.4,0.7-3.4,1.4-6.1,2c0.5,0.6,1,1.3,1.3,1.9c1.4-0.6,2.6-1.1,3.8-1.7c1.2-0.5,2.3-1.1,3.3-1.7c0.3,0.4,0.6,0.7,0.9,1.1
			c-0.6,0.6-1.7,1.3-3.2,2.2c-1.5,0.9-3.6,1.7-6.1,2.5c0.5,0.5,1,1,1.4,1.6c0.9-0.3,2.1-0.9,3.7-1.7c1.5-0.8,3.3-2,5.3-3.4
			c0.3,0.3,0.5,0.7,0.8,1.2c-0.8,0.8-2.1,1.8-3.9,3c-1.8,1.2-4.3,2.3-7.5,3.3c0.4,0.5,0.9,1.1,1.4,1.7c1.3-0.6,2.8-1.4,4.6-2.4
			c1.8-1,3.8-2.3,5.9-4c0.2,1.2,0.2,2.2,0.1,3c-0.1,0.8-0.5,1.3-1.1,1.4c-0.6,0.2-1.5,0.3-2.6,0.3c0.3,0.6,0.6,1.4,0.9,2.2
			c1.3-0.2,2.4-0.6,3.3-1.2c0.9-0.6,1.4-1.5,1.4-2.7c0-1.2-0.1-2.6-0.4-4.3c0.5-0.3,1-0.5,1.5-0.9c0.3,1.4,0.9,2.7,1.7,3.9
			c0.8,1.3,2.2,2.5,4,3.6c0.5-0.8,1.1-1.4,1.7-1.8c-1.6-0.8-2.9-1.6-3.8-2.4C51.3,39.5,50.6,38.1,50,36.2z"/>
		<path class="st0" d="M36,31.3v-3.7h16.8v3.2h2c-0.1-0.9-0.1-1.6-0.1-2.2c0-0.6,0-1.5,0.1-2.5h-8.9c-0.5-1.3-0.7-2.3-0.9-2.9
			c-0.7,0.3-1.5,0.5-2.3,0.7c0.3,0.6,0.6,1.4,0.9,2.2H34c0.1,0.8,0.1,1.7,0.1,2.5c0,0.8,0,1.7-0.1,2.7H36z"/>
		<path class="st0" d="M48.9,1.1H15.6L2.3,14.3v33.4l13.2,13.2h33.4l13.2-13.2V14.3L48.9,1.1z M60.5,47L48.2,59.2h-32L4,47V15
			L16.2,2.8h32L60.5,15V47z"/>
		<rect x="16.1" y="50.6" class="st0" width="32.3" height="1.5"/>
		<path class="st0" d="M52.7,19.4c-3.4-1.2-5.9-4.4-5.9-8.2v-0.8V9.8c0-1.4,0.2-2.4,0.2-2.4h-0.2h-1.7v2.8H19.5V7.4l0,0l0,0h-1.7
			h-0.2c0,0,0.2,1,0.2,2.4v0.4v0.8c0,3.8-2.5,7.1-5.9,8.2c-1.4,0.4-2.8,0-2.8,0v0.5v1.7c5.4,0,9.9-4.2,10.4-9.6h1.7v8.7h1.7v-8.7
			h3.4v8.7H28v-8.7h3.4v8.7h1.7v-8.7h3.4v8.7h1.7v-8.7h3.4v8.7h1.7v-8.7h1.8c0.4,5.3,4.9,9.6,10.4,9.6v-1.7v-0.5
			C55.5,19.3,54.1,19.7,52.7,19.4z"/>
	</g>
</g>
</svg>
